<svg width="30" height="29" viewBox="0 0 30 29" fill="none" xmlns="http://www.w3.org/2000/svg">
<path d="M28.8868 9.14621C28.7508 8.98724 28.582 8.85961 28.392 8.77211C28.202 8.6846 27.9953 8.6393 27.7861 8.63931H1.71713C1.50578 8.63659 1.29638 8.68016 1.10365 8.76697C0.910925 8.85379 0.739537 8.98173 0.60152 9.14183C0.463504 9.30193 0.362205 9.4903 0.304736 9.69372C0.247268 9.89713 0.235023 10.1107 0.268861 10.3193L2.78886 25.28C2.95853 26.3054 3.49019 27.2361 4.28736 27.903C5.08453 28.57 6.09439 28.9291 7.13368 28.9151H22.4419C23.4812 28.9291 24.4911 28.57 25.2883 27.903C26.0854 27.2361 26.6171 26.3054 26.7868 25.28L29.2343 10.3193C29.2655 10.1103 29.2506 9.89691 29.1905 9.69425C29.1305 9.4916 29.0268 9.30454 28.8868 9.14621ZM23.8612 24.802C23.8057 25.1447 23.629 25.4561 23.3631 25.6794C23.0973 25.9027 22.7601 26.0231 22.413 26.0186H7.06127C6.71413 26.0231 6.37694 25.9027 6.11111 25.6794C5.84528 25.4561 5.66851 25.1447 5.61299 24.802L3.4261 11.5359H26.0771L23.8612 24.802ZM8.78471 7.19104C8.9692 7.23892 9.16133 7.24992 9.35008 7.2234C9.53883 7.19687 9.72049 7.13335 9.88464 7.03648C10.0488 6.9396 10.1922 6.81128 10.3067 6.65886C10.4211 6.50645 10.5044 6.33294 10.5516 6.14828C10.7922 5.2153 11.336 4.38875 12.0976 3.7986C12.8592 3.20845 13.7954 2.88819 14.7588 2.88819C15.7223 2.88819 16.6585 3.20845 17.4201 3.7986C18.1817 4.38875 18.7255 5.2153 18.9661 6.14828C19.0621 6.52087 19.3022 6.84004 19.6336 7.0356C19.7976 7.13243 19.9792 7.19599 20.1678 7.22266C20.3564 7.24933 20.5485 7.23859 20.733 7.19104C20.9175 7.14349 21.0908 7.06007 21.243 6.94555C21.3953 6.83102 21.5235 6.68763 21.6203 6.52356C21.7171 6.35948 21.7807 6.17795 21.8074 5.98931C21.834 5.80067 21.8233 5.60863 21.7757 5.42415C21.3732 3.87132 20.4664 2.49611 19.1977 1.51439C17.929 0.532666 16.3702 0 14.7661 0C13.1619 0 11.6032 0.532666 10.3345 1.51439C9.06579 2.49611 8.159 3.87132 7.75644 5.42415C7.65924 5.79478 7.71288 6.18882 7.90561 6.51999C8.09834 6.85116 8.41445 7.09246 8.78471 7.19104Z" fill="#E0E5EB" fill-opacity="0.5"/>
<path d="M8.9585 17.3291H20.5447C20.9288 17.3291 21.2972 17.1765 21.5688 16.9049C21.8404 16.6333 21.993 16.2649 21.993 15.8808C21.993 15.4967 21.8404 15.1283 21.5688 14.8567C21.2972 14.5851 20.9288 14.4325 20.5447 14.4325H8.9585C8.57439 14.4325 8.20602 14.5851 7.93441 14.8567C7.66281 15.1283 7.51022 15.4967 7.51022 15.8808C7.51022 16.2649 7.66281 16.6333 7.93441 16.9049C8.20602 17.1765 8.57439 17.3291 8.9585 17.3291ZM19.0964 20.2256H10.4068C10.0227 20.2256 9.65429 20.3782 9.38269 20.6498C9.11108 20.9214 8.9585 21.2898 8.9585 21.6739C8.9585 22.058 9.11108 22.4264 9.38269 22.698C9.65429 22.9696 10.0227 23.1222 10.4068 23.1222H19.0964C19.4805 23.1222 19.8489 22.9696 20.1205 22.698C20.3921 22.4264 20.5447 22.058 20.5447 21.6739C20.5447 21.2898 20.3921 20.9214 20.1205 20.6498C19.8489 20.3782 19.4805 20.2256 19.0964 20.2256Z" fill="#E0E5EB" fill-opacity="0.5"/>
</svg>
