<svg width="29" height="29" viewBox="0 0 29 29" fill="none" xmlns="http://www.w3.org/2000/svg">
<path d="M25.8117 15.1036C25.5846 14.8451 25.4594 14.5127 25.4594 14.1686C25.4594 13.8245 25.5846 13.4921 25.8117 13.2336L27.6251 11.1936C27.8249 10.9707 27.949 10.6903 27.9795 10.3925C28.0101 10.0947 27.9455 9.7949 27.7951 9.53609L24.9617 4.63443C24.8128 4.37591 24.5862 4.171 24.314 4.0489C24.0418 3.9268 23.738 3.89373 23.4459 3.95443L20.7826 4.49276C20.4437 4.56278 20.0909 4.50634 19.7907 4.33409C19.4906 4.16184 19.2639 3.88569 19.1534 3.55776L18.2892 0.96526C18.1942 0.68388 18.0131 0.439485 17.7716 0.266619C17.5301 0.0937534 17.2404 0.00115996 16.9434 0.00192661H11.2767C10.9678 -0.0141979 10.6621 0.071239 10.4063 0.245188C10.1505 0.419137 9.95864 0.672037 9.86007 0.96526L9.06674 3.55776C8.95624 3.88569 8.72953 4.16184 8.4294 4.33409C8.12926 4.50634 7.77646 4.56278 7.43757 4.49276L4.70341 3.95443C4.42652 3.9153 4.14425 3.95899 3.89215 4.08C3.64005 4.20101 3.4294 4.39392 3.28674 4.63443L0.453405 9.53609C0.299215 9.79201 0.229887 10.0901 0.255331 10.3878C0.280775 10.6855 0.399689 10.9676 0.595072 11.1936L2.39424 13.2336C2.62136 13.4921 2.74661 13.8245 2.74661 14.1686C2.74661 14.5127 2.62136 14.8451 2.39424 15.1036L0.595072 17.1436C0.399689 17.3696 0.280775 17.6517 0.255331 17.9494C0.229887 18.2471 0.299215 18.5452 0.453405 18.8011L3.28674 23.7028C3.43563 23.9613 3.66232 24.1662 3.93451 24.2883C4.2067 24.4104 4.51049 24.4435 4.80257 24.3828L7.4659 23.8444C7.8048 23.7744 8.1576 23.8308 8.45773 24.0031C8.75787 24.1753 8.98457 24.4515 9.09507 24.7794L9.95924 27.3719C10.0578 27.6651 10.2496 27.918 10.5055 28.092C10.7613 28.2659 11.067 28.3514 11.3759 28.3353H17.0426C17.3396 28.336 17.6293 28.2434 17.8708 28.0706C18.1123 27.8977 18.2934 27.6533 18.3884 27.3719L19.2526 24.7794C19.3631 24.4515 19.5898 24.1753 19.8899 24.0031C20.19 23.8308 20.5428 23.7744 20.8817 23.8444L23.5451 24.3828C23.8372 24.4435 24.1409 24.4104 24.4131 24.2883C24.6853 24.1662 24.912 23.9613 25.0609 23.7028L27.8942 18.8011C28.0447 18.5423 28.1092 18.2425 28.0787 17.9447C28.0481 17.6469 27.9241 17.3665 27.7242 17.1436L25.8117 15.1036ZM23.7009 17.0019L24.8342 18.2769L23.0209 21.4219L21.3492 21.0819C20.3289 20.8734 19.2675 21.0467 18.3666 21.569C17.4656 22.0913 16.7878 22.9262 16.4617 23.9153L15.9234 25.5019H12.2967L11.7867 23.8869C11.4607 22.8979 10.7829 22.0629 9.8819 21.5406C8.98093 21.0183 7.91955 20.845 6.89924 21.0536L5.22757 21.3936L3.38591 18.2628L4.51924 16.9878C5.21617 16.2086 5.60148 15.1998 5.60148 14.1544C5.60148 13.109 5.21617 12.1003 4.51924 11.3211L3.38591 10.0461L5.19924 6.92943L6.8709 7.26943C7.89122 7.47799 8.95259 7.30467 9.85356 6.78237C10.7545 6.26008 11.4324 5.42515 11.7584 4.43609L12.2967 2.83526H15.9234L16.4617 4.45026C16.7878 5.43932 17.4656 6.27424 18.3666 6.79654C19.2675 7.31884 20.3289 7.49216 21.3492 7.28359L23.0209 6.94359L24.8342 10.0886L23.7009 11.3636C23.0118 12.141 22.6313 13.1439 22.6313 14.1828C22.6313 15.2216 23.0118 16.2245 23.7009 17.0019ZM14.1101 8.50193C12.9893 8.50193 11.8937 8.83427 10.9618 9.45693C10.03 10.0796 9.30365 10.9646 8.87475 12.0001C8.44586 13.0355 8.33364 14.1749 8.55229 15.2741C8.77094 16.3733 9.31064 17.383 10.1031 18.1755C10.8956 18.968 11.9053 19.5077 13.0046 19.7264C14.1038 19.945 15.2432 19.8328 16.2786 19.4039C17.3141 18.975 18.1991 18.2487 18.8217 17.3168C19.4444 16.3849 19.7767 15.2894 19.7767 14.1686C19.7767 12.6657 19.1797 11.2244 18.117 10.1617C17.0543 9.09895 15.613 8.50193 14.1101 8.50193ZM14.1101 17.0019C13.5497 17.0019 13.0019 16.8358 12.536 16.5244C12.07 16.2131 11.7069 15.7706 11.4924 15.2529C11.278 14.7351 11.2219 14.1655 11.3312 13.6158C11.4405 13.0662 11.7104 12.5614 12.1066 12.1651C12.5029 11.7689 13.0077 11.499 13.5573 11.3897C14.1069 11.2804 14.6766 11.3365 15.1943 11.5509C15.7121 11.7654 16.1546 12.1285 16.4659 12.5945C16.7772 13.0604 16.9434 13.6082 16.9434 14.1686C16.9434 14.92 16.6449 15.6407 16.1135 16.1721C15.5822 16.7034 14.8615 17.0019 14.1101 17.0019Z" fill="#E0E5EB" fill-opacity="0.5"/>
</svg>
