<svg width="26" height="23" viewBox="0 0 26 23" fill="none" xmlns="http://www.w3.org/2000/svg">
<path d="M13 22.2857C12.7485 22.2857 12.5357 22.1987 12.3616 22.0245L3.30804 13.2902C3.21131 13.2128 3.07831 13.0871 2.90904 12.9129C2.73977 12.7388 2.47135 12.4221 2.10379 11.9626C1.73624 11.5032 1.40737 11.0316 1.11719 10.548C0.827009 10.0644 0.568266 9.47916 0.34096 8.79241C0.113653 8.10565 0 7.43824 0 6.79018C0 4.6622 0.614211 2.99851 1.84263 1.79911C3.07106 0.599702 4.7686 0 6.93527 0C7.53497 0 8.14676 0.103981 8.77065 0.311942C9.39453 0.519903 9.97489 0.800409 10.5117 1.15346C11.0485 1.50651 11.5104 1.8378 11.8973 2.14732C12.2842 2.45684 12.6518 2.78571 13 3.13393C13.3482 2.78571 13.7158 2.45684 14.1027 2.14732C14.4896 1.8378 14.9515 1.50651 15.4883 1.15346C16.0251 0.800409 16.6055 0.519903 17.2294 0.311942C17.8532 0.103981 18.465 0 19.0647 0C21.2314 0 22.9289 0.599702 24.1574 1.79911C25.3858 2.99851 26 4.6622 26 6.79018C26 8.92782 24.8925 11.1042 22.6775 13.3192L13.6384 22.0245C13.4643 22.1987 13.2515 22.2857 13 22.2857Z" fill="#5D6B7D" fill-opacity="0.5"/>
</svg>
