<svg width="27" height="30" viewBox="0 0 27 30" fill="none" xmlns="http://www.w3.org/2000/svg">
<path d="M24.7918 8.7849L16.0418 1.11407C15.2397 0.396633 14.2013 0 13.1251 0C12.049 0 11.0106 0.396633 10.2085 1.11407L1.45847 8.7849C0.995259 9.19917 0.625617 9.70738 0.37416 10.2757C0.122702 10.844 -0.00480165 11.4593 0.000138241 12.0807V24.8266C0.000138241 25.9869 0.461075 27.0997 1.28155 27.9202C2.10202 28.7406 3.21482 29.2016 4.37514 29.2016H21.8751C23.0355 29.2016 24.1483 28.7406 24.9687 27.9202C25.7892 27.0997 26.2501 25.9869 26.2501 24.8266V12.0661C26.253 11.4472 26.1245 10.8346 25.8731 10.269C25.6217 9.70339 25.2532 9.19754 24.7918 8.7849ZM16.0418 26.2849H10.2085V18.9932C10.2085 18.6065 10.3621 18.2355 10.6356 17.962C10.9091 17.6885 11.28 17.5349 11.6668 17.5349H14.5835C14.9702 17.5349 15.3412 17.6885 15.6147 17.962C15.8882 18.2355 16.0418 18.6065 16.0418 18.9932V26.2849ZM23.3335 24.8266C23.3335 25.2133 23.1798 25.5843 22.9063 25.8578C22.6328 26.1313 22.2619 26.2849 21.8751 26.2849H18.9585V18.9932C18.9585 17.8329 18.4975 16.7201 17.6771 15.8996C16.8566 15.0792 15.7438 14.6182 14.5835 14.6182H11.6668C10.5065 14.6182 9.39368 15.0792 8.57321 15.8996C7.75274 16.7201 7.29181 17.8329 7.29181 18.9932V26.2849H4.37514C3.98836 26.2849 3.61743 26.1313 3.34394 25.8578C3.07045 25.5843 2.91681 25.2133 2.91681 24.8266V12.0661C2.91707 11.8591 2.96142 11.6545 3.04691 11.4659C3.13241 11.2773 3.25708 11.1091 3.41264 10.9724L12.1626 3.31615C12.4288 3.08235 12.7709 2.95341 13.1251 2.95341C13.4794 2.95341 13.8215 3.08235 14.0876 3.31615L22.8376 10.9724C22.9932 11.1091 23.1179 11.2773 23.2034 11.4659C23.2889 11.6545 23.3332 11.8591 23.3335 12.0661V24.8266Z" fill="#E0E5EB"/>
</svg>
