<svg width="24" height="29" viewBox="0 0 24 29" fill="none" xmlns="http://www.w3.org/2000/svg">
<path d="M13.6431 24.12C14.3452 24.1408 15.0346 24.312 15.6639 24.622H15.7018C16.2276 25.051 16.317 25.8167 15.9039 26.3538C15.1518 27.4302 13.9483 28.1088 12.6327 28.1986C11.281 28.3598 9.91975 27.9856 8.84364 27.157C8.29021 26.7775 7.93056 26.1773 7.85849 25.513C7.85849 24.8103 8.51526 24.484 9.12151 24.3459C9.83158 24.1964 10.5554 24.1207 11.2813 24.12H13.6431ZM12.0517 0C16.4217 0 20.9307 3.16246 21.398 7.74301C21.4738 8.68422 21.398 9.66307 21.4738 10.6168C21.7217 11.8468 22.2925 12.9897 23.1283 13.9299C23.6479 14.7025 23.9489 15.5997 23.9999 16.5276V16.8163C24.0076 18.0683 23.5589 19.2808 22.7368 20.2297C21.6948 21.3439 20.281 22.044 18.7583 22.2C14.2596 22.7772 9.70486 22.7772 5.20616 22.2C3.66558 22.0559 2.23186 21.3548 1.17715 20.2297C0.380792 19.2717 -0.0368091 18.0582 0.0025487 16.8163V16.5276C0.0518371 15.6032 0.34356 14.7077 0.848768 13.9299C1.68826 12.9889 2.26713 11.8472 2.52858 10.6168C2.60436 9.66307 2.52858 8.69677 2.60436 7.74301C3.0843 3.16246 7.50485 0 11.9254 0H12.0517Z" fill="#E0E5EB" fill-opacity="0.5"/>
</svg>
